<svg width="129" height="32" viewBox="0 0 129 32" fill="none" xmlns="http://www.w3.org/2000/svg">
<g filter="url(#filter0_d)">
<path d="M6.05 21.325C6.81667 21.425 7.54167 21.6667 8.225 22.05V23H0.5V22.05C0.766667 21.9 1.05 21.7667 1.35 21.65C1.65 21.5167 1.96667 21.4083 2.3 21.325V7.175C1.91667 7.09167 1.575 6.98333 1.275 6.85C0.991667 6.71667 0.733333 6.58333 0.5 6.45V5.5H13.575C13.575 5.83333 13.5583 6.2 13.525 6.6C13.4917 6.98333 13.45 7.38333 13.4 7.8C13.3667 8.2 13.3167 8.6 13.25 9C13.2 9.38333 13.1417 9.74167 13.075 10.075H12.05L10.9 7.125H6.05V13.7H9.475L10.6 11.775H11.35C11.4167 12.2083 11.4583 12.6667 11.475 13.15C11.5083 13.6333 11.525 14.1167 11.525 14.6C11.5083 15.1 11.4833 15.5833 11.45 16.05C11.4333 16.5167 11.4 16.9333 11.35 17.3H10.6L9.475 15.325H6.05V21.325ZM20.6623 23H14.4873V22.05C14.754 21.8833 15.0373 21.7417 15.3373 21.625C15.654 21.4917 15.9623 21.3917 16.2623 21.325L22.7123 5.2H24.5623L30.8373 21.325C31.1706 21.3917 31.504 21.4917 31.8373 21.625C32.1706 21.7417 32.4623 21.8833 32.7123 22.05V23H24.8873V22.05C25.204 21.9 25.5456 21.7583 25.9123 21.625C26.279 21.4917 26.629 21.3917 26.9623 21.325L25.5123 17.35H19.9623L18.4873 21.325C19.254 21.425 19.979 21.6667 20.6623 22.05V23ZM20.5623 15.725H24.9873L23.3623 10.95L22.8873 8.8H22.8373L22.2873 11L20.5623 15.725ZM39.1252 20.925C39.3085 21.1083 39.5669 21.2833 39.9002 21.45C40.2335 21.6 40.6752 21.675 41.2252 21.675C42.1419 21.675 42.9002 21.4417 43.5002 20.975C44.1169 20.4917 44.4252 19.825 44.4252 18.975C44.4252 18.3583 44.2252 17.8417 43.8252 17.425C43.4419 17.0083 42.9502 16.625 42.3502 16.275C41.7502 15.925 41.1085 15.5833 40.4252 15.25C39.7419 14.9 39.1002 14.4917 38.5002 14.025C37.9002 13.5583 37.4002 13.0083 37.0002 12.375C36.6169 11.725 36.4252 10.925 36.4252 9.975C36.4252 9.15833 36.5752 8.45 36.8752 7.85C37.1752 7.25 37.5835 6.75833 38.1002 6.375C38.6335 5.975 39.2585 5.68333 39.9752 5.5C40.6919 5.3 41.4669 5.2 42.3002 5.2C43.3169 5.2 44.2585 5.275 45.1252 5.425C46.0085 5.55833 46.8002 5.775 47.5002 6.075C47.4835 6.40833 47.4502 6.79167 47.4002 7.225C47.3669 7.65833 47.3169 8.09167 47.2502 8.525C47.1835 8.94167 47.1085 9.34167 47.0252 9.725C46.9585 10.0917 46.8919 10.4 46.8252 10.65H45.8002L44.6502 7.225C44.4502 7.125 44.1502 7.03333 43.7502 6.95C43.3669 6.86667 42.9669 6.825 42.5502 6.825C41.8502 6.825 41.2585 7.00833 40.7752 7.375C40.2919 7.74167 40.0502 8.275 40.0502 8.975C40.0502 9.60833 40.2502 10.15 40.6502 10.6C41.0502 11.0333 41.5502 11.4333 42.1502 11.8C42.7502 12.1667 43.4002 12.5333 44.1002 12.9C44.8169 13.25 45.4752 13.6583 46.0752 14.125C46.6752 14.5917 47.1752 15.1417 47.5752 15.775C47.9752 16.3917 48.1752 17.1583 48.1752 18.075C48.1752 19.7417 47.6085 21.0333 46.4752 21.95C45.3585 22.85 43.7085 23.3 41.5252 23.3C40.9919 23.3 40.4502 23.2667 39.9002 23.2C39.3669 23.1333 38.8585 23.0417 38.3752 22.925C37.8919 22.8083 37.4585 22.6833 37.0752 22.55C36.7085 22.4167 36.4335 22.275 36.2502 22.125C36.2669 21.7417 36.3085 21.3333 36.3752 20.9C36.4419 20.45 36.5085 20.0083 36.5752 19.575C36.6585 19.125 36.7419 18.7 36.8252 18.3C36.9085 17.9 36.9919 17.55 37.0752 17.25H38.1002L39.1252 20.925ZM59.7156 23H52.1406V22.05C52.424 21.9 52.749 21.7583 53.1156 21.625C53.499 21.4917 53.8573 21.3917 54.1906 21.325V7.175C53.7906 7.10833 53.4073 7.00833 53.0406 6.875C52.674 6.74167 52.374 6.6 52.1406 6.45V5.5H59.7156V6.45C59.4656 6.61667 59.1823 6.76667 58.8656 6.9C58.5656 7.03333 58.2573 7.125 57.9406 7.175V13.225H64.5656V7.175C64.199 7.10833 63.8656 7.00833 63.5656 6.875C63.2823 6.74167 63.024 6.6 62.7906 6.45V5.5H70.3656V6.45C70.0823 6.63333 69.7573 6.78333 69.3906 6.9C69.024 7.01667 68.6656 7.10833 68.3156 7.175V21.325C68.699 21.3917 69.0656 21.4917 69.4156 21.625C69.7823 21.7583 70.099 21.9 70.3656 22.05V23H62.7906V22.05C63.0406 21.9 63.3156 21.7583 63.6156 21.625C63.9156 21.4917 64.2323 21.3917 64.5656 21.325V14.85H57.9406V21.325C58.274 21.3917 58.5823 21.4833 58.8656 21.6C59.149 21.7167 59.4323 21.8667 59.7156 22.05V23ZM81.9045 23H74.1045V22.05C74.7712 21.6833 75.4462 21.4417 76.1295 21.325V7.175C75.7962 7.125 75.4462 7.03333 75.0795 6.9C74.7128 6.76667 74.3878 6.61667 74.1045 6.45V5.5H81.9045V6.45C81.6045 6.63333 81.2712 6.79167 80.9045 6.925C80.5545 7.04167 80.2128 7.125 79.8795 7.175V21.325C80.2128 21.3917 80.5545 21.4833 80.9045 21.6C81.2712 21.7167 81.6045 21.8667 81.9045 22.05V23ZM86.1313 14.25C86.1313 12.95 86.3146 11.75 86.6813 10.65C87.0479 9.53333 87.5896 8.575 88.3063 7.775C89.0229 6.95833 89.9063 6.325 90.9563 5.875C92.0063 5.425 93.2146 5.2 94.5813 5.2C95.9479 5.2 97.1563 5.425 98.2063 5.875C99.2563 6.325 100.131 6.95833 100.831 7.775C101.548 8.575 102.09 9.53333 102.456 10.65C102.823 11.75 103.006 12.95 103.006 14.25C103.006 15.55 102.823 16.7583 102.456 17.875C102.09 18.975 101.548 19.9333 100.831 20.75C100.131 21.55 99.2563 22.175 98.2063 22.625C97.1563 23.075 95.9479 23.3 94.5813 23.3C93.2146 23.3 92.0063 23.075 90.9563 22.625C89.9063 22.175 89.0229 21.55 88.3063 20.75C87.5896 19.9333 87.0479 18.975 86.6813 17.875C86.3146 16.7583 86.1313 15.55 86.1313 14.25ZM90.3813 14.25C90.3813 15.3167 90.4646 16.3083 90.6313 17.225C90.7979 18.125 91.0563 18.9083 91.4062 19.575C91.7729 20.225 92.2313 20.7417 92.7813 21.125C93.3479 21.4917 94.0229 21.675 94.8063 21.675C95.5229 21.675 96.1313 21.4917 96.6313 21.125C97.1313 20.7417 97.5396 20.225 97.8563 19.575C98.1729 18.9083 98.3979 18.125 98.5313 17.225C98.6813 16.3083 98.7563 15.3167 98.7563 14.25C98.7563 13.1833 98.6729 12.2 98.5063 11.3C98.3563 10.3833 98.1063 9.6 97.7563 8.95C97.4229 8.28333 96.9729 7.76667 96.4063 7.4C95.8563 7.01667 95.1813 6.825 94.3813 6.825C93.6146 6.825 92.9729 7.01667 92.4563 7.4C91.9396 7.76667 91.5229 8.28333 91.2063 8.95C90.9063 9.6 90.6896 10.3833 90.5563 11.3C90.4396 12.2 90.3813 13.1833 90.3813 14.25ZM118.754 5.5H124.954V6.45C124.637 6.7 124.287 6.925 123.904 7.125C123.521 7.30833 123.162 7.45 122.829 7.55V23.3H120.704L111.879 10.55L110.879 8.625H110.804L111.029 10.625V21.05C111.362 21.1333 111.729 21.275 112.129 21.475C112.546 21.6583 112.896 21.85 113.179 22.05V23H107.004V22.05C107.304 21.85 107.629 21.6667 107.979 21.5C108.346 21.3167 108.721 21.1667 109.104 21.05V7.4C108.771 7.26667 108.437 7.11667 108.104 6.95C107.771 6.78333 107.471 6.60833 107.204 6.425V5.5H112.604L119.779 15.9L120.929 18.05H121.029L120.904 15.9V7.55C120.504 7.41667 120.112 7.25833 119.729 7.075C119.362 6.875 119.037 6.66667 118.754 6.45V5.5Z" fill="#171717"/>
<rect opacity="0.35" y="30" width="125" height="6" fill="#C9A96E"/>
</g>
<defs>
<filter id="filter0_d" x="-4" y="-3" width="134" height="47" filterUnits="userSpaceOnUse" color-interpolation-filters="sRGB">
<feFlood flood-opacity="0" result="BackgroundImageFix"/>
<feColorMatrix in="SourceAlpha" type="matrix" values="0 0 0 0 0 0 0 0 0 0 0 0 0 0 0 0 0 0 127 0"/>
<feOffset dy="4"/>
<feGaussianBlur stdDeviation="2"/>
<feColorMatrix type="matrix" values="0 0 0 0 0 0 0 0 0 0 0 0 0 0 0 0 0 0 0.25 0"/>
<feBlend mode="normal" in2="BackgroundImageFix" result="effect1_dropShadow"/>
<feBlend mode="normal" in="SourceGraphic" in2="effect1_dropShadow" result="shape"/>
</filter>
</defs>
</svg>
